<svg xmlns="http://www.w3.org/2000/svg" xmlns:xlink="http://www.w3.org/1999/xlink" viewBox="0 0 135.788 34.801">
    <defs>
        <linearGradient id="a" x1="0.944" y1="0.052" x2="0.583" y2="0.523" gradientUnits="objectBoundingBox">
            <stop offset="0" stop-color="#c1ecff"/>
            <stop offset="1" stop-color="#64cfff"/>
        </linearGradient>
        <radialGradient id="b" cx="0.866" cy="0.565" r="0.803" gradientTransform="translate(0 0.158) scale(1 0.72)" gradientUnits="objectBoundingBox">
            <stop offset="0" stop-color="#74d5ff"/>
            <stop offset="1" stop-color="#91ddff" stop-opacity="0.059"/>
        </radialGradient>
        <linearGradient id="c" x1="0.012" y1="0.051" x2="0.955" y2="0.727" gradientUnits="objectBoundingBox">
            <stop offset="0" stop-color="#9fe9ff"/>
            <stop offset="0.68" stop-color="#00b1ff"/>
            <stop offset="1" stop-color="#31597b"/>
        </linearGradient>
        <linearGradient id="d" x1="0.839" y1="0.015" x2="0.432" y2="0.959" gradientUnits="objectBoundingBox">
            <stop offset="0" stop-color="#49caff"/>
            <stop offset="1" stop-color="#00a4ea"/>
        </linearGradient>
    </defs>
    <g transform="translate(-11.976 -42.857)">
        <path d="M86.885,17.426a6.1,6.1,0,0,1-2.027-1.212,5.5,5.5,0,0,1-1.343-1.922,6.575,6.575,0,0,1-.484-2.585,6.689,6.689,0,0,1,.484-2.584,5.8,5.8,0,0,1,3.332-3.257,6.832,6.832,0,0,1,2.5-.454,6.442,6.442,0,0,1,2.3.4,5.04,5.04,0,0,1,1.827,1.2A5.57,5.57,0,0,1,94.68,9a8.117,8.117,0,0,1,.436,2.779v.392a3.28,3.28,0,0,1-.025.391H86.015a2.922,2.922,0,0,0,.335,1.165,3,3,0,0,0,.759.905,3.769,3.769,0,0,0,1.07.6,3.584,3.584,0,0,0,1.243.22,4.063,4.063,0,0,0,1.89-.4,3.536,3.536,0,0,0,1.267-1.115l1.99,1.569a6.041,6.041,0,0,1-5.123,2.35A7.449,7.449,0,0,1,86.885,17.426Zm.162-9.014a2.9,2.9,0,0,0-1.032,2.045h6.117A3.632,3.632,0,0,0,91.97,9.38a2.476,2.476,0,0,0-.51-.906,2.513,2.513,0,0,0-.883-.625,3.146,3.146,0,0,0-1.255-.232A3.4,3.4,0,0,0,87.047,8.412Zm-27.09,9.209a4.442,4.442,0,0,1-1.42-.612,3.6,3.6,0,0,1-1.078-1.127,3.27,3.27,0,0,1-.428-1.727,2.934,2.934,0,0,1,.746-2.105,4.841,4.841,0,0,1,1.923-1.2,10.932,10.932,0,0,1,2.608-.552c.945-.089,1.889-.134,2.8-.134V9.87a1.821,1.821,0,0,0-.8-1.629,3.379,3.379,0,0,0-1.9-.527,4.264,4.264,0,0,0-1.788.391,4.81,4.81,0,0,0-1.42.956L57.693,7.274a6.65,6.65,0,0,1,2.314-1.4,7.925,7.925,0,0,1,2.658-.465,6.564,6.564,0,0,1,2.584.442A4.232,4.232,0,0,1,66.852,7a4.109,4.109,0,0,1,.82,1.593A6.877,6.877,0,0,1,67.9,10.36v7.151H65.163V16.016h-.074A3.3,3.3,0,0,1,63.668,17.3a4.83,4.83,0,0,1-2.228.5A6.438,6.438,0,0,1,59.957,17.621Zm3-5.412a6.485,6.485,0,0,0-1.445.268,3.106,3.106,0,0,0-1.1.589,1.3,1.3,0,0,0-.441,1.04,1.257,1.257,0,0,0,.184.7,1.414,1.414,0,0,0,.478.454,2.136,2.136,0,0,0,.661.246,3.784,3.784,0,0,0,.734.073,3.077,3.077,0,0,0,2.3-.808,3.051,3.051,0,0,0,.784-2.205v-.416h-.662C63.986,12.147,63.484,12.168,62.958,12.209ZM14.315,17.286a6.267,6.267,0,1,1,2.433.491A6.214,6.214,0,0,1,14.315,17.286Zm1.046-9.055A3.556,3.556,0,0,0,14.219,9a3.585,3.585,0,0,0,0,5.077,3.589,3.589,0,1,0,1.142-5.846Zm62.119,9.28H74.322L69.571,5.756h3.209l.383,1.066c.786,2.445,2.227,6.474,2.507,7.256l.011.031c.055.158.152.253.259.253s.2-.095.258-.253c.016-.046,1.895-5.328,2.654-7.812l.2-.542h3.11L77.481,17.51h0Zm-31.941,0V.171h3.086v14.6h5.448l1.4,2.743Zm-3.645,0H38.956V5.756H41.9V17.51h0Zm-9.955,0H28.805L24.053,5.756h3.208l.1.283c.751,2.473,2.744,8.016,2.764,8.071.054.158.151.253.259.253s.205-.095.258-.253c.017-.05,1.775-4.988,2.583-7.586l.279-.768h3.11L31.94,17.51h0Zm-22.009,0H0V.171H3.086v14.6H8.534l1.4,2.741,0,0ZM39.066,3a1.713,1.713,0,0,1,0-2.473A1.813,1.813,0,0,1,40.4,0a1.952,1.952,0,0,1,1.36.5,1.645,1.645,0,0,1,.551,1.262,1.643,1.643,0,0,1-.551,1.261,1.952,1.952,0,0,1-1.36.5A1.813,1.813,0,0,1,39.066,3Z" transform="translate(52.649 54.042)" fill="#1d5a8e"/>
        <g transform="translate(11.976 42.857)">
            <path d="M6.573.6C7.388,2.335,7.143,10.881,0,15.719A15.184,15.184,0,0,0,1.662.592C3.926-.037,6.125-.348,6.573.6Z" transform="translate(16.664 5.972) rotate(-60)" fill="url(#a)"/>
            <path d="M15.152,2.942c1.01,1.361,1.48-.689,2.015-.888,3.5,8.058-3.011,14.472-6.008,15.174-2.139.516-4.841,2.489-8.164-1.287C-1.792,9.912-.011,5.29,2.607,2.416S11.738-1.324,15.152,2.942Z" transform="translate(7.227 22.264) rotate(-60)" fill="url(#b)"/>
            <path d="M16.394,31.46h0a15.294,15.294,0,0,1-1.592-.083A15.045,15.045,0,0,1,2.3,10.994L2.3,10.981,2.266,10.9A38.017,38.017,0,0,1,.785,5.086C.349,2.948.032,1.1.029,1.08A.852.852,0,0,1,.178.337.865.865,0,0,1,.857,0a.876.876,0,0,1,.222.029c.019,0,1.94.309,4.161.735a37.024,37.024,0,0,1,5.966,1.46l.064.026h0A15.118,15.118,0,0,1,27.079,5.767a14.955,14.955,0,0,1,4.146,7.766A15.066,15.066,0,0,1,19.279,31.184,15.265,15.265,0,0,1,16.394,31.46ZM4.307,3.748a.432.432,0,0,0-.34.169.426.426,0,0,0-.075.371v0c.055.225,1.361,5.528,2.048,7.612a11.374,11.374,0,0,0,9.247,15.843,11.539,11.539,0,0,0,1.2.062A11.393,11.393,0,1,0,12.21,5.824c-2.122-.7-7.736-2.048-7.792-2.061A.438.438,0,0,0,4.307,3.748Z" transform="translate(0 3.341)" fill="url(#c)"/>
            <path d="M11.481,1.407A10.155,10.155,0,0,1,14.823,0a15.216,15.216,0,0,1-1.658,15.105A15.856,15.856,0,0,1,0,17.422,11.4,11.4,0,0,0,11.481,1.407Z" transform="translate(10.61 17.64) rotate(-60)" fill="url(#d)"/>
        </g>
    </g>
</svg>
