<svg xmlns="http://www.w3.org/2000/svg" width="46.131" height="28.597" viewBox="0 0 46.131 28.597"><g transform="translate(0 0.001)"><path d="M1660.951,15477.507H1654.7v-22.483h6.255a14.44,14.44,0,0,1,3.978,4.894,14.305,14.305,0,0,1-3.978,17.59Z" transform="translate(-1637.818 -15451.968)" fill="#fff" opacity="0.353"/><path d="M17.671,14.3a14.274,14.274,0,0,1,5.46-11.241,14.3,14.3,0,1,0,0,22.482A14.274,14.274,0,0,1,17.671,14.3" transform="translate(0 0)" fill="#fff"/><path d="M17.671,14.3a14.274,14.274,0,0,1,5.46-11.241,14.3,14.3,0,1,0,0,22.482A14.274,14.274,0,0,1,17.671,14.3" transform="translate(46.131 28.596) rotate(180)" fill="#fff" opacity="0.527"/></g></svg>