<svg xmlns="http://www.w3.org/2000/svg" width="21.142" height="12.687" viewBox="0 0 21.142 12.687"><g transform="translate(0)" opacity="0.615"><path d="M20.95,5.74C20.786,5.5,16.886,0,10.568,0S.349,5.5.186,5.74a1.058,1.058,0,0,0,0,1.207c.165.234,4.064,5.74,10.382,5.74s10.219-5.5,10.382-5.74a1.057,1.057,0,0,0,0-1.207ZM10.568,11.628c-5.838,0-9.514-5.285-9.514-5.285s3.675-5.285,9.514-5.285,9.514,5.285,9.514,5.285S16.406,11.628,10.568,11.628Z" transform="translate(0.003)" fill="#fff"/><path d="M157.828,51.2a4.228,4.228,0,1,0,4.228,4.228A4.228,4.228,0,0,0,157.828,51.2Zm0,7.4A3.171,3.171,0,1,1,161,55.428a3.171,3.171,0,0,1-3.171,3.171Z" transform="translate(-147.257 -49.086)" fill="#fff"/></g></svg>